<svg xmlns="http://www.w3.org/2000/svg" version="1.1" xmlns:xlink="http://www.w3.org/1999/xlink" xmlns:svgjs="http://svgjs.dev/svgjs" width="1000" height="1000" viewBox="0 0 1000 1000"><rect width="1000" height="1000" fill="#ffffff"></rect><g transform="matrix(0.7,0,0,0.7,149.57575757575756,409.43422595595854)"><svg viewBox="0 0 396 103" data-background-color="#ffffff" preserveAspectRatio="xMidYMid meet" height="260" width="1000" xmlns="http://www.w3.org/2000/svg" xmlns:xlink="http://www.w3.org/1999/xlink"><g id="tight-bounds" transform="matrix(1,0,0,1,0.2400000000000091,-0.24574326078970898)"><svg viewBox="0 0 395.52 103.49148652157939" height="103.49148652157939" width="395.52"><g><svg viewBox="0 0 613.5725291398653 160.54695876185718" height="103.49148652157939" width="395.52"><g><rect width="6.668904875362797" height="160.54695876185718" x="193.9257580986314" y="0" fill="#46383b" opacity="1" stroke-width="0" stroke="transparent" fill-opacity="1" class="rect-in-0" data-fill-palette-color="primary" rx="1%" id="in-0" data-palette-color="#46383b"></rect></g><g transform="matrix(1,0,0,1,218.05252913986538,0.39937054418371076)"><svg viewBox="0 0 395.52 159.74821767348976" height="159.74821767348976" width="395.52"><g><svg viewBox="0 0 395.52 159.74821767348976" height="159.74821767348976" width="395.52"><g><svg viewBox="0 0 395.52 159.74821767348976" height="159.74821767348976" width="395.52"><g transform="matrix(1,0,0,1,0,0)"><svg width="395.52" viewBox="2.15 -37 202.00000000000006 77.75" height="159.74821767348976" data-palette-color="#46383b"><svg></svg><svg></svg><g class="undefined-text-0" data-fill-palette-color="primary" id="text-0"><path d="M26.15-34.85h4.55v34.85h-4.55v-15.8h-17.75v15.8h-4.55v-34.85h4.55v15.3h17.75zM36.75-13.8c0-2.8 0.567-5.26 1.7-7.38 1.133-2.113 2.693-3.753 4.68-4.92 1.98-1.167 4.187-1.75 6.62-1.75v0c2.4 0 4.483 0.517 6.25 1.55 1.767 1.033 3.083 2.333 3.95 3.9v0-5h4.6v27.4h-4.6v-5.1c-0.9 1.6-2.24 2.923-4.02 3.97-1.787 1.053-3.863 1.58-6.23 1.58v0c-2.433 0-4.633-0.6-6.6-1.8-1.967-1.2-3.517-2.883-4.65-5.05-1.133-2.167-1.7-4.633-1.7-7.4zM59.95-13.75c0-2.067-0.417-3.867-1.25-5.4-0.833-1.533-1.957-2.71-3.37-3.53-1.42-0.813-2.98-1.22-4.68-1.22v0c-1.7 0-3.25 0.4-4.65 1.2-1.4 0.8-2.517 1.967-3.35 3.5-0.833 1.533-1.25 3.333-1.25 5.4v0c0 2.1 0.417 3.923 1.25 5.47 0.833 1.553 1.95 2.737 3.35 3.55 1.4 0.82 2.95 1.23 4.65 1.23v0c1.7 0 3.26-0.41 4.68-1.23 1.413-0.813 2.537-1.997 3.37-3.55 0.833-1.547 1.25-3.353 1.25-5.42zM70.55-13.75c0-2.833 0.567-5.31 1.7-7.43 1.133-2.113 2.71-3.753 4.73-4.92 2.013-1.167 4.32-1.75 6.92-1.75v0c3.367 0 6.143 0.817 8.33 2.45 2.18 1.633 3.62 3.9 4.32 6.8v0h-4.9c-0.467-1.667-1.373-2.983-2.72-3.95-1.353-0.967-3.03-1.45-5.03-1.45v0c-2.6 0-4.7 0.89-6.3 2.67-1.6 1.787-2.4 4.313-2.4 7.58v0c0 3.3 0.8 5.85 2.4 7.65 1.6 1.8 3.7 2.7 6.3 2.7v0c2 0 3.667-0.467 5-1.4 1.333-0.933 2.25-2.267 2.75-4v0h4.9c-0.733 2.8-2.2 5.04-4.4 6.72-2.2 1.687-4.95 2.53-8.25 2.53v0c-2.6 0-4.907-0.583-6.92-1.75-2.02-1.167-3.597-2.817-4.73-4.95-1.133-2.133-1.7-4.633-1.7-7.5zM124.1 0h-6.2l-10.75-12.1v12.1h-4.55v-37h4.55v21.75l10.55-12.15h6.35l-12.9 13.65zM153.35-14.75c0 0.867-0.05 1.783-0.15 2.75v0h-21.9c0.167 2.7 1.09 4.807 2.77 6.32 1.687 1.52 3.73 2.28 6.13 2.28v0c1.967 0 3.61-0.46 4.93-1.38 1.313-0.913 2.237-2.137 2.77-3.67v0h4.9c-0.733 2.633-2.2 4.777-4.4 6.43-2.2 1.647-4.933 2.47-8.2 2.47v0c-2.6 0-4.927-0.583-6.98-1.75-2.047-1.167-3.653-2.827-4.82-4.98-1.167-2.147-1.75-4.637-1.75-7.47v0c0-2.833 0.567-5.317 1.7-7.45 1.133-2.133 2.727-3.777 4.78-4.93 2.047-1.147 4.403-1.72 7.07-1.72v0c2.6 0 4.9 0.567 6.9 1.7 2 1.133 3.54 2.69 4.62 4.67 1.087 1.987 1.63 4.23 1.63 6.73zM148.65-15.7c0-1.733-0.383-3.227-1.15-4.48-0.767-1.247-1.807-2.197-3.12-2.85-1.32-0.647-2.78-0.97-4.38-0.97v0c-2.3 0-4.257 0.733-5.87 2.2-1.62 1.467-2.547 3.5-2.78 6.1v0zM163.9-22.95c0.8-1.567 1.94-2.783 3.42-3.65 1.487-0.867 3.297-1.3 5.43-1.3v0 4.7h-1.2c-5.1 0-7.65 2.767-7.65 8.3v0 14.9h-4.55v-27.4h4.55zM177.9-34.85h4.55v22.05c0 3.1 0.757 5.4 2.27 6.9 1.52 1.5 3.63 2.25 6.33 2.25v0c2.667 0 4.76-0.75 6.28-2.25 1.513-1.5 2.27-3.8 2.27-6.9v0-22.05h4.55v22c0 2.9-0.583 5.34-1.75 7.32-1.167 1.987-2.74 3.463-4.72 4.43-1.987 0.967-4.213 1.45-6.68 1.45v0c-2.467 0-4.69-0.483-6.67-1.45-1.987-0.967-3.553-2.443-4.7-4.43-1.153-1.98-1.73-4.42-1.73-7.32v0z" fill="#46383b" fill-rule="nonzero" stroke="none" stroke-width="1" stroke-linecap="butt" stroke-linejoin="miter" stroke-miterlimit="10" stroke-dasharray="" stroke-dashoffset="0" font-family="none" font-weight="none" font-size="none" text-anchor="none" style="mix-blend-mode: normal" data-fill-palette-color="primary" opacity="1"></path><path transform="translate(0,40.45)" d="M2.15-17.45c0-3.4 0.767-6.46 2.3-9.18 1.533-2.713 3.627-4.837 6.28-6.37 2.647-1.533 5.587-2.3 8.82-2.3v0c3.8 0 7.117 0.917 9.95 2.75 2.833 1.833 4.9 4.433 6.2 7.8v0h-5.45c-0.967-2.1-2.357-3.717-4.17-4.85-1.82-1.133-3.997-1.7-6.53-1.7v0c-2.433 0-4.617 0.567-6.55 1.7-1.933 1.133-3.45 2.74-4.55 4.82-1.1 2.087-1.65 4.53-1.65 7.33v0c0 2.767 0.55 5.19 1.65 7.27 1.1 2.087 2.617 3.697 4.55 4.83 1.933 1.133 4.117 1.7 6.55 1.7v0c2.533 0 4.71-0.56 6.53-1.68 1.813-1.113 3.203-2.72 4.17-4.82v0h5.45c-1.3 3.333-3.367 5.907-6.2 7.72-2.833 1.82-6.15 2.73-9.95 2.73v0c-3.233 0-6.173-0.76-8.82-2.28-2.653-1.513-4.747-3.62-6.28-6.32-1.533-2.7-2.3-5.75-2.3-9.15zM66.25 0h-5.45l-8.3-14.25h-5.5v14.25h-4.55v-34.85h11.25c2.633 0 4.86 0.45 6.68 1.35 1.813 0.9 3.17 2.117 4.07 3.65 0.9 1.533 1.35 3.283 1.35 5.25v0c0 2.4-0.69 4.517-2.07 6.35-1.387 1.833-3.463 3.05-6.23 3.65v0zM47-31.1v13.2h6.7c2.467 0 4.317-0.61 5.55-1.83 1.233-1.213 1.85-2.837 1.85-4.87v0c0-2.067-0.607-3.667-1.82-4.8-1.22-1.133-3.08-1.7-5.58-1.7v0zM103.35-34.6h4.85v34.6h-4.55v-25.8l-11.5 25.8h-3.2l-11.55-25.85v25.85h-4.55v-34.6h4.9l12.8 28.6z" fill="#46383b" fill-rule="nonzero" stroke="none" stroke-width="1" stroke-linecap="butt" stroke-linejoin="miter" stroke-miterlimit="10" stroke-dasharray="" stroke-dashoffset="0" font-family="none" font-weight="none" font-size="none" text-anchor="none" style="mix-blend-mode: normal" data-fill-palette-color="primary" opacity="1"></path></g></svg></g></svg></g></svg></g></svg></g><g transform="matrix(1,0,0,1,0,0.39937054418371076)"><svg viewBox="0 0 176.4678919327602 159.74821767348976" height="159.74821767348976" width="176.4678919327602"><g><svg xmlns="http://www.w3.org/2000/svg" xmlns:xlink="http://www.w3.org/1999/xlink" version="1.1" x="0" y="0" viewBox="6.566043613816004 10.18884818980381 86.94927075765322 78.7111518101962" enable-background="new 0 0 100 100" xml:space="preserve" height="159.74821767348976" width="176.4678919327602" class="icon-icon-0" data-fill-palette-color="accent" id="icon-0"><path d="M66.1 68.9c-2.3 0-3.1-2.8-3.6-4.5-0.1-0.3-0.2-0.7-0.3-0.9-0.1-0.4-0.3-0.8-0.4-1.3-0.3 0.2-0.6 0.3-0.8 0.4 0 0.1-0.1 0.2-0.1 0.3-0.2 0.5-0.6 0.8-1.2 1-0.8 0.2-1.3 0-1.7-0.2-0.3-0.2-0.5-0.5-0.6-0.8-0.8 0.5-1.4 0.4-1.7 0.2-0.8-0.4-1.1-1.3-1.3-2.3 0 0 0 0-0.1 0.1-0.4 0.3-0.8 0.6-1.1 0.8-0.5 0.3-1.1 0.2-1.4-0.3-0.3-0.5-0.2-1.1 0.3-1.4 0.3-0.2 0.7-0.5 1-0.7 0.5-0.4 1.1-0.8 1.7-1.1 0.3-0.2 0.7-0.1 1 0 0.3 0.2 0.5 0.5 0.5 0.8 0 1.1 0.1 1.7 0.2 2 0.1-0.2 0.1-0.4 0.1-0.5 0.1-0.5 0.2-1.1 0.6-1.5 0.3-0.3 0.6-0.4 1-0.3 0.4 0.1 0.6 0.4 0.7 0.7 0 0 0 0.1 0 0.1 0.1-0.1 0.3-0.2 0.4-0.2 0.5-0.1 1 0.1 1.2 0.6 0.1 0.2 0.1 0.4 0.2 0.6 0.1-0.4-0.3-1.4-0.5-1.9-0.1-0.2-0.2-0.4-0.2-0.5-0.2-0.4 0-0.9 0.4-1.2 0.4-0.3 0.9-0.2 1.3 0.1 1.1 1.1 1.6 2.8 1.9 4.4 0.1 0.6 0.3 1.2 0.4 1.6 0.1 0.3 0.2 0.7 0.3 1 0.4 1.3 0.7 2.2 1.1 2.6-0.2-1.4-0.6-2.8-0.9-4.1-0.2-0.8-0.3-1.6-0.5-2.4-0.3-1.9-0.6-3.8-2-4.9-1.1-0.8-3.1-1.2-4.6-0.8-0.8 0.2-1.4 0.9-2.1 1.7-0.5 0.6-1 1.2-1.8 1.7-0.2 0.4-0.6 0.7-1 0.7-0.1 0-0.2 0-0.2 0-0.5 0.1-1-0.2-1.1-0.7-0.1-0.5 0.1-1 0.6-1.2 0.8-0.3 1.4-1 2-1.8 0.8-0.9 1.7-2 3.2-2.4 2.1-0.5 4.8 0 6.4 1.2 2 1.6 2.4 4 2.7 6.1 0.1 0.8 0.2 1.5 0.4 2.2 0.5 1.8 1 3.8 1.2 5.9 0 0.5-0.3 0.9-0.8 1C66.6 68.9 66.3 68.9 66.1 68.9z" fill="#373030" data-fill-palette-color="accent"></path><path d="M34.1 29.3c-0.5 0-0.9-0.1-1.3-0.6-0.5-0.5-0.7-1.6-1-3.1-0.1-0.4-0.1-0.8-0.2-1-0.1-0.2-0.1-0.3-0.2-0.5-0.3-0.9-0.6-1.8-0.4-2.9 0.1-0.5 0.6-0.9 1.2-0.8 0.2 0 0.4 0.2 0.5 0.3 0.8 0 1.7-0.2 2.6-0.4 0.7-0.2 1.4-0.3 2.1-0.4 1.4-0.2 2.8-0.4 4.2-0.7 0.9-0.2 1.8-0.3 2.7-0.5 0.6-0.1 1.3-0.2 2-0.4 1.9-0.4 4-0.9 5.9-0.6 0.5 0.1 0.8 0.5 0.8 1 0 1.3 0.5 3 1.3 5.3 0.2 0.5 0 1-0.4 1.2-1.4 0.8-3.4 1.2-5.1 1.5-0.6 0.1-1.2 0.2-1.8 0.4-1.8 0.4-3.6 0.6-5.4 0.8-1.9 0.2-3.7 0.3-5.4 0.8-0.2 0.1-0.4 0.1-0.6 0.2C35.2 29.1 34.7 29.3 34.1 29.3zM33.1 22.7c0.1 0.2 0.1 0.5 0.2 0.8 0.1 0.2 0.1 0.4 0.2 0.6 0.1 0.3 0.2 0.7 0.3 1.2 0.1 0.5 0.3 1.6 0.5 2.1 0.2 0 0.5-0.1 0.7-0.2 0.3-0.1 0.5-0.2 0.8-0.3 1.9-0.5 3.8-0.7 5.7-0.9 1.8-0.2 3.5-0.3 5.1-0.7 0.6-0.1 1.2-0.3 1.9-0.4 1.3-0.2 2.7-0.5 3.7-0.9-0.4-1.2-0.9-2.8-1.1-4.2-1.3 0-2.9 0.3-4.3 0.6-0.8 0.2-1.5 0.3-2.1 0.4-0.9 0.1-1.7 0.3-2.6 0.5-1.4 0.3-2.9 0.5-4.3 0.7-0.6 0.1-1.2 0.2-1.9 0.4C34.9 22.5 34 22.7 33.1 22.7z" fill="#373030" data-fill-palette-color="accent"></path><path d="M32.4 22.7c-0.4 0-0.8-0.2-0.9-0.6-1.2-3-1.6-7.1 0.9-9.5 1.6-1.5 4.6-1.9 6.5-2.2 3.7-0.5 6.5-0.3 9 2.7 1.7 2.1 2.7 3.4 3.7 5.9 0.2 0.5 0 1.1-0.6 1.3-0.5 0.2-1.1 0-1.3-0.6-1-2.3-1.8-3.5-3.4-5.4-1.9-2.2-3.9-2.4-7.2-2-1.7 0.2-4.2 0.6-5.4 1.7-1.8 1.7-1.3 5-0.4 7.3 0.2 0.5 0 1.1-0.6 1.3C32.6 22.7 32.5 22.7 32.4 22.7z" fill="#373030" data-fill-palette-color="accent"></path><path d="M46.6 34.7c-0.5 0-1 0-1.5-0.1-0.6 0-1-0.5-0.9-1.1 0-0.6 0.5-1 1.1-0.9 2.9 0.2 3.7-0.3 4-0.5 0.1-0.1 0.1-0.2 0.1-0.4 0-0.5-1.2-1.4-1.8-1.9-0.1-0.1-0.2-0.2-0.4-0.3 0 0 0 0 0 0-0.5 0.1-1.1-0.3-1.2-0.8-0.1-0.6 0.2-1 0.4-1.2 0.1-0.1 0.6-0.4 1.2-0.2 0.2 0 0.3 0.1 0.4 0.2 0.2 0.2 0.5 0.4 0.8 0.7 1.1 0.9 2.5 1.9 2.6 3.3 0.1 0.8-0.2 1.5-0.7 2C49.9 34.3 48.6 34.7 46.6 34.7z" fill="#373030" data-fill-palette-color="accent"></path><path d="M38.3 33.3c-2 0-3.5-1.4-3.9-2.9-0.5-1.9 0.4-3.6 2.3-4.5 0.5-0.2 1.1 0 1.3 0.5 0.2 0.5 0 1.1-0.5 1.3-1 0.5-1.5 1.3-1.2 2.2 0.2 0.8 1 1.6 2.2 1.4 1.2-0.1 2.3-0.8 3.5-1.5 1.1-0.7 2.2-1.3 3.5-1.6 1.2-0.3 1.7 0 2.4 0.4 0.2 0.1 0.4 0.3 0.8 0.5l0.3 0.1c1.1 0.6 1.8 0.9 2.5 0.6 0.4-0.2 0.6-0.5 0.7-1 0.2-0.9-0.2-2.2-0.8-3.1 0 0 0 0 0 0-0.5 0-0.9-0.3-1-0.8-0.1-0.6 0.2-1 0.3-1.2 0.2-0.2 0.5-0.4 1.1-0.3 0.2 0 0.4 0.1 0.5 0.3 1.1 1.2 2.1 3.5 1.8 5.5-0.2 1.1-0.8 1.9-1.8 2.4-1.6 0.8-3.2 0-4.3-0.6l-0.3-0.1c-0.5-0.2-0.8-0.4-1-0.6C46.5 30 46.5 30 46 30.1c-1 0.2-1.9 0.8-2.9 1.4-1.3 0.8-2.7 1.6-4.3 1.8C38.6 33.3 38.4 33.3 38.3 33.3z" fill="#373030" data-fill-palette-color="accent"></path><path d="M39.4 30.2c-0.5 0-0.9-0.3-1-0.8-0.1-0.5 0.1-1 0.6-1.2l0.4-0.2c0.4-0.2 0.9-0.4 1.3-0.5 0.5-0.1 1.1 0.2 1.2 0.7 0.1 0.5-0.2 1.1-0.7 1.2-0.2 0.1-0.4 0.1-0.6 0.2-0.2 0.3-0.5 0.4-0.8 0.4-0.1 0-0.2 0-0.3 0C39.5 30.2 39.4 30.2 39.4 30.2z" fill="#373030" data-fill-palette-color="accent"></path><path d="M50.2 28.7c-0.1 0-0.3 0-0.4-0.1-0.2-0.1-0.4-0.2-0.5-0.3-0.1 0-0.2-0.1-0.3-0.1-0.4 0.3-1 0.2-1.4-0.2-0.4-0.4-0.3-1 0.1-1.4 1-0.9 2-0.3 2.5 0 0.1 0.1 0.2 0.1 0.3 0.2 0.5 0.2 0.7 0.8 0.5 1.3C51 28.4 50.6 28.7 50.2 28.7z" fill="#373030" data-fill-palette-color="accent"></path><path d="M50.2 43.6c-0.3 0-0.6-0.2-0.8-0.4-0.2-0.3-0.8-0.5-1.4-0.6-0.5-0.2-1.1-0.3-1.6-0.6-1.1-0.7-5.6-3.9-6-6.3-0.1-0.3 0-0.6 0.2-0.9 0.2-0.2 0.5-0.4 0.8-0.3 0.9 0.1 1.8 0.3 2.7 0.5 1.2 0.3 2.4 0.5 3.6 0.5 1.4 0 2.8-0.2 4.1-0.5-0.8-1.2-1.4-2.5-1.4-3.5 0-0.6 0.5-1 1-1 0.6 0 1 0.5 1 1 0 0.5 0.6 1.7 1.8 3.4l0.1 0.1c0.2 0.3 0.2 0.6 0.1 0.9-0.1 0.3-0.4 0.5-0.7 0.6-1.8 0.5-3.8 0.9-6 0.9-1.5 0-2.8-0.3-4-0.6-0.1 0-0.2-0.1-0.4-0.1 1.2 1.3 3 2.8 4 3.4 0.3 0.2 0.7 0.3 1.1 0.4 0.9 0.3 1.9 0.5 2.5 1.4 0.3 0.5 0.2 1.1-0.3 1.4C50.6 43.5 50.4 43.6 50.2 43.6z" fill="#373030" data-fill-palette-color="accent"></path><path d="M44.8 47.7c-3 0-6.3-1.4-7.9-3.6-0.3-0.5-0.2-1.1 0.2-1.4 0.5-0.3 1.1-0.2 1.4 0.2 1.5 2.2 5.7 3.4 8.2 2.5 1.4-0.5 2.1-1.7 1.9-3.5 0-0.4 0.1-0.8 0.5-1 0.3-0.2 0.8-0.2 1.1 0.1 0.6 0 1 0.4 1 0.9 0 0.4-0.2 0.8-0.6 1-0.1 2.1-1.3 3.6-3.2 4.3C46.6 47.5 45.7 47.7 44.8 47.7z" fill="#373030" data-fill-palette-color="accent"></path><path d="M33 35.1c-2.1 0-4.6-1.2-5.4-2.8-0.3-0.5-0.9-2.2 1.3-3.7 0.8-0.5 3.1-0.9 4.3-0.3 0.8 0.4 1 1 1 1.3 0.1 0.5-0.3 1-0.9 1.1-0.5 0-0.9-0.2-1-0.7-0.5-0.2-1.9 0-2.3 0.2-0.9 0.6-0.7 0.9-0.6 1.1 0.6 1.1 3.2 2.1 4.4 1.6 0.5-0.2 1.1 0.1 1.3 0.6 0.2 0.5-0.1 1.1-0.6 1.3C34.1 35 33.6 35.1 33 35.1z" fill="#373030" data-fill-palette-color="accent"></path><path d="M30.9 45.1c-0.3 0-0.6-0.1-0.8-0.3-0.4-0.4-0.3-1 0.1-1.4 1.8-1.5 2-4 2.1-6.6 0.1-1 0.1-2 0.3-2.9 0.1-0.5 0.5-0.8 0.9-0.8 0.4 0 0.7 0.1 1 0.4 0.1 0.2 0.4 0.5 0.3 1.1 0 0.3-0.2 0.5-0.4 0.6-0.1 0.6-0.1 1.2-0.1 1.8-0.2 2.8-0.4 5.9-2.8 8C31.3 45 31.1 45.1 30.9 45.1z" fill="#373030" data-fill-palette-color="accent"></path><path d="M34.7 47.7c-0.2 0-0.3 0-0.5-0.1-0.6-0.3-1.3-0.8-2-1.2-0.6-0.4-1.4-1-1.8-1.1-0.5-0.2-0.8-0.7-0.6-1.3 0.2-0.5 0.7-0.8 1.3-0.6 0.6 0.2 1.4 0.7 2.3 1.3 0.6 0.4 1.2 0.9 1.7 1.1 0.5 0.3 0.7 0.9 0.4 1.3C35.5 47.5 35.1 47.7 34.7 47.7z" fill="#373030" data-fill-palette-color="accent"></path><path d="M34.7 48.3c-0.1 0-0.2 0-0.4-0.1-0.5-0.2-0.8-0.8-0.6-1.3 0.2-0.6 0.5-1.1 0.8-1.6 0.4-0.8 0.8-1.5 0.9-2.3 0.1-0.5 0.6-0.9 1.1-0.9 0.5 0.1 0.9 0.6 0.9 1.1-0.1 1.2-0.7 2.2-1.2 3.1-0.3 0.5-0.5 0.9-0.7 1.4C35.5 48.1 35.1 48.3 34.7 48.3z" fill="#373030" data-fill-palette-color="accent"></path><path d="M38.9 27.5c-0.3 0-0.6-0.1-0.8-0.4-0.9-1.1-1.1-3.2-1.3-5.2 0-0.4-0.1-0.7-0.1-0.9-0.1-0.5 0.2-1.1 0.8-1.2 0.5-0.1 1.1 0.2 1.2 0.8 0 0.2 0.1 0.6 0.1 1.1 0.1 1.1 0.3 3.4 0.9 4.1 0.3 0.4 0.3 1.1-0.2 1.4C39.3 27.4 39.1 27.5 38.9 27.5z" fill="#373030" data-fill-palette-color="accent"></path><path d="M41.9 26.9c-0.4 0-0.8-0.3-1-0.7-0.3-1-0.5-2-0.6-2.9-0.1-0.6-0.2-1.1-0.3-1.7 0-0.2-0.1-0.4-0.1-0.6 0-0.1 0-0.1 0-0.2 0 0-0.1-0.1-0.1-0.1-0.4-0.4-0.4-1-0.1-1.4 0.3-0.4 0.8-0.5 1.2-0.4 0.8 0.2 0.9 1 1 1.7 0 0.2 0.1 0.4 0.1 0.5 0.1 0.6 0.2 1.2 0.3 1.8 0.1 0.9 0.3 1.8 0.6 2.6 0.2 0.5-0.1 1.1-0.6 1.3C42.1 26.9 42 26.9 41.9 26.9z" fill="#373030" data-fill-palette-color="accent"></path><path d="M46.4 26.6c-0.5 0-1-0.4-1-0.9-0.3-4.1-0.9-5.6-1.2-5.9-0.4-0.4-0.4-1-0.1-1.4 0.4-0.4 1-0.4 1.4-0.1 0.4 0.3 1.4 1.2 1.8 7.2C47.4 26.1 47 26.5 46.4 26.6 46.4 26.6 46.4 26.6 46.4 26.6z" fill="#373030" data-fill-palette-color="accent"></path><path d="M48.5 24.8c-0.4 0-0.8-0.2-0.9-0.6-0.6-1.4-1.2-3.6-1-5.6 0.1-0.5 0.5-1 1.1-0.9 0.5 0.1 0.9 0.5 0.9 1.1-0.1 1.3 0.2 3.1 0.8 4.6 0.2 0.5 0 1.1-0.5 1.3C48.7 24.8 48.6 24.8 48.5 24.8z" fill="#373030" data-fill-palette-color="accent"></path><path d="M41.5 63.7c-0.3 0-0.6-0.1-0.8-0.2-0.3-0.2-0.5-0.5-0.5-0.9 0-0.6-1.5-1.7-2.2-2.2-0.5-0.4-1-0.7-1.3-1.1-0.3-0.3-0.7-0.6-1.1-1-1.1-0.9-2.3-2-2.8-3-0.8-1.9-0.5-4.3-0.2-6.4 0.1-0.9 0.2-1.7 0.3-2.4 0-0.6 0.4-1 1-1 0.6 0 1 0.5 1 1 0 0.8-0.1 1.7-0.3 2.6-0.3 1.9-0.5 4 0 5.4 0.3 0.6 1.4 1.6 2.2 2.3 0.5 0.4 0.9 0.8 1.2 1.1 0.2 0.2 0.7 0.6 1.1 0.9 1.1 0.8 2.3 1.7 2.8 2.8 0.9-0.3 2.6-1.4 5.1-3.3 0.5-0.4 0.9-0.7 1.1-0.8 0.1-0.1 0.2-0.2 0.4-0.3 0.8-0.7 2-1.6 3.1-1.3 0.4 0.1 0.7 0.4 0.7 0.8 0.1 0.6-0.2 1.2-0.7 1.6-0.4 0.2-0.8 0.2-1.1-0.1-0.3 0.2-0.6 0.4-0.7 0.5-0.2 0.2-0.4 0.3-0.5 0.4-0.2 0.1-0.6 0.4-1 0.7C45 62.3 42.9 63.7 41.5 63.7z" fill="#373030" data-fill-palette-color="accent"></path><path d="M24.9 50.4c-0.1 0-0.2 0-0.2 0-0.5-0.1-0.9-0.7-0.7-1.2 0.4-1.5 1.8-2.5 3-3.4 0.7-0.5 1.3-1 1.7-1.4 0.1-0.2 0.3-0.3 0.6-0.3 0.6-0.1 1 0.1 1.1 0.3 0.2 0.2 0.4 0.5 0.3 1.2-0.1 0.5-0.6 0.9-1.1 0.8-0.4 0.4-0.9 0.8-1.4 1.1-1 0.7-2.1 1.5-2.3 2.3C25.8 50.1 25.4 50.4 24.9 50.4z" fill="#373030" data-fill-palette-color="accent"></path><path d="M32.4 71c-0.2 0-0.5-0.1-0.7-0.2-0.9-0.8-0.8-2.4-0.7-3.9 0-0.4 0.1-0.8 0-1-0.1-1.4 0-2.8 0-4 0-0.4 0-0.9 0-1.3 0 0 0 0 0-0.1l0-0.5c0-0.6 0.5-1 1-1 0.6 0 1 0.5 1 1 0 0.6 0 1.2 0 1.8 0 1.3-0.1 2.6 0 3.9 0 0.3 0 0.8 0 1.3 0 0.6-0.1 2 0.1 2.3 0.4 0.4 0.4 1 0.1 1.4C33 70.9 32.7 71 32.4 71z" fill="#373030" data-fill-palette-color="accent"></path><path d="M26.9 76.7c-0.4 0-0.7-0.2-0.9-0.6-0.5-1.1-0.5-2.1 0-3-0.4-0.1-0.7-0.3-0.8-0.7-0.2-0.5 0.1-1.1 0.6-1.3 4-1.4 8.4-2.6 14.3-3.9 0.3-0.1 0.6-0.1 1-0.3 2.8-0.8 5.5-1.3 6.9-0.1 1.2 1 1.2 2 1.1 2.7-0.7 2.8-6.9 4.3-6.9 4.3-2.1 0.5-4.2 0.8-6.3 1.1-2.9 0.4-5.9 0.8-8.7 1.7C27.1 76.7 27 76.7 26.9 76.7zM29.8 71.9c0 0.3-0.2 0.6-0.5 0.7-1.2 0.6-1.6 1.2-1.6 1.7 2.6-0.7 5.4-1.1 8-1.5 2-0.3 4.1-0.6 6.1-1 1.8-0.4 5.2-1.8 5.4-2.8 0.1-0.2-0.2-0.5-0.4-0.7-0.7-0.6-3.9 0.2-5.1 0.6-0.4 0.1-0.8 0.2-1.1 0.3C36.3 70.1 32.8 71 29.8 71.9z" fill="#373030" data-fill-palette-color="accent"></path><path d="M22.4 81.7c-2.1 0-4.3-0.4-5.9-0.7L16 80.9c-2.6-0.5-5.4-1.3-6.8-3.7-1.4-2.4-1.8-5.7-2.1-8.4L7 68c-1.1-9.2-0.1-16.6 2.9-22.1 1.3-2.3 3.8-5.1 6.9-5.7 1.9-0.4 3.9 0 5.6 1.3 3.8 2.8 4.1 8 4.3 12.2l0 0.9c0.1 1.7 0.2 3.4 0.3 5.2 0.3 4.9 0.5 10 0.9 15 0 0.1 0.1 0.2 0.1 0.4 0 0.2 0 0.3 0 0.5 0 0.1 0 0.1 0 0.2 0 0 0 0 0 0 0 1.8 0 4.5-2.5 5.4C24.6 81.5 23.5 81.7 22.4 81.7zM18.2 42c-0.3 0-0.7 0-1 0.1-2.1 0.5-4.2 2.3-5.6 4.8C8.9 52 7.9 59.2 9 67.8L9 68.5c0.3 2.5 0.6 5.6 1.9 7.6 1 1.7 3.2 2.3 5.5 2.7l0.4 0.1c2.4 0.4 6 1.1 8 0.3 1.1-0.4 1.2-1.7 1.2-3.6 0 0 0-0.1 0-0.1-0.4-5.3-0.7-10.6-1-15.8-0.1-1.7-0.2-3.4-0.3-5.2l0-0.9c-0.2-3.8-0.4-8.5-3.5-10.7C20.3 42.4 19.3 42 18.2 42z" fill="#373030" data-fill-palette-color="accent"></path><path d="M29.7 85.2c-2.9 0-5.8-0.2-8.5-0.5-0.5-0.1-0.9-0.6-0.9-1.1 0.1-0.5 0.6-0.9 1.1-0.9 4.6 0.5 9.6 0.9 14.8 0.1l0.5-0.1c1.2-0.2 3.6-0.5 4.3-1.3 0.5-0.5 0.6-3.2 0.2-3.8-0.6-0.7-2.1-0.5-3.3-0.3-0.4 0.1-0.7 0.1-1 0.1-1 0.1-2 0.1-2.9 0.1-2.4 0-4.4 0.1-6.5 1.3-0.5 0.3-1.1 0.1-1.4-0.3-0.3-0.5-0.1-1.1 0.3-1.4 2.5-1.5 5-1.5 7.5-1.6 0.9 0 1.8 0 2.7-0.1 0.3 0 0.6-0.1 0.9-0.1 1.6-0.2 3.9-0.6 5.2 1 1.1 1.4 0.8 5.2-0.3 6.4-1.1 1.1-3.3 1.5-5.4 1.9l-0.4 0.1C34.2 85.1 31.9 85.2 29.7 85.2z" fill="#373030" data-fill-palette-color="accent"></path><path d="M48.5 86.8c-0.5 0-0.9-0.4-1-0.9-0.2-1.7 0.2-3.2 0.6-4.8 0.4-1.4 0.7-2.7 0.6-4.1 0-0.2 0-0.6 0-0.9 0-0.6-0.1-2-0.3-2.3-1.2-1.4-5.9 0.3-8 1-0.2 0.1-0.4 0.2-0.6 0.2-0.2 0.3-0.5 0.4-0.9 0.4l-0.4 0c-0.5 0-0.9-0.4-0.9-0.9 0-0.5 0.3-0.9 0.7-1 0.4-0.1 0.9-0.3 1.4-0.5 3.2-1.1 8.1-2.8 10.1-0.4 0.7 0.8 0.8 2.3 0.8 3.5 0 0.3 0 0.6 0 0.8 0.2 1.7-0.2 3.2-0.6 4.8-0.4 1.4-0.7 2.7-0.6 4 0.1 0.5-0.3 1-0.9 1.1C48.5 86.8 48.5 86.8 48.5 86.8z" fill="#373030" data-fill-palette-color="accent"></path><path d="M44 88.3c-0.2 0-0.4-0.1-0.5-0.2-0.5-0.3-0.6-0.9-0.3-1.4 0.2-0.3 0.2-1 0.2-1.6 0-0.4 0-0.7 0-1.1 0.1-0.7 0.2-1.5 0.4-2.2 0.2-1 0.4-2 0.4-3 0-0.2 0-0.4 0-0.7-0.4 0.1-0.8 0.1-1.2 0.1-0.8 0.1-1.6 0.1-1.9 0.4-0.4 0.4-1 0.4-1.4 0-0.4-0.4-0.4-1 0-1.4 0.8-0.8 2.1-0.9 3.2-1 0.7-0.1 1.4-0.1 1.8-0.3 0.3-0.2 0.6-0.2 0.9 0 0.3 0.2 0.5 0.4 0.5 0.8 0.1 0.7 0.1 1.4 0.1 2.2-0.1 1.1-0.3 2.2-0.4 3.2-0.1 0.7-0.3 1.4-0.3 2.1 0 0.3 0 0.5 0 0.8 0 0.9 0 1.9-0.5 2.7C44.6 88.1 44.3 88.3 44 88.3z" fill="#373030" data-fill-palette-color="accent"></path><path d="M38.9 88.6C38.9 88.6 38.9 88.6 38.9 88.6c-0.6 0-1-0.5-1-1.1 0.1-1.8 0.4-3.4 1-4.5 0.2-0.5 0.8-0.7 1.3-0.5 0.5 0.2 0.7 0.8 0.5 1.3-0.4 0.9-0.7 2.2-0.8 3.8C39.9 88.2 39.4 88.6 38.9 88.6z" fill="#373030" data-fill-palette-color="accent"></path><path d="M34.7 88.9c-0.2 0-0.3 0-0.5-0.1-0.5-0.3-0.6-0.9-0.4-1.4 0.3-0.5 0.4-1.1 0.6-1.7 0.2-0.8 0.4-1.8 1-2.6 0.2-0.3 0.5-0.4 0.8-0.4 0.3 0 0.6 0.2 0.8 0.5l0.3 0.4c0.3 0.5 0.2 1.1-0.3 1.4-0.1 0.1-0.3 0.1-0.4 0.1-0.1 0.3-0.2 0.7-0.3 1.1-0.2 0.8-0.3 1.5-0.8 2.3C35.4 88.7 35.1 88.9 34.7 88.9z" fill="#373030" data-fill-palette-color="accent"></path><path d="M74.7 88c-0.6 0-1-0.4-1-1 0-1.6 0-3.2-0.1-4.8-0.1-3.2-0.2-6.5 0.1-9.8-1.1-0.2-2.6-0.1-4 0-0.9 0.1-1.8 0.1-2.6 0.1-3.8-0.2-7.5-0.2-11.3 0-1.1 0.1-2.3 0-3.5-0.1-1.5-0.1-3-0.1-4.3 0-0.2 0.2-0.4 0.3-0.7 0.4-0.6 0.1-0.9-0.2-1.1-0.3-0.3-0.3-0.4-0.6-0.3-1 0.1-0.4 0.4-0.7 0.8-0.8 1.8-0.4 3.8-0.3 5.7-0.2 1.2 0.1 2.3 0.1 3.3 0.1 3.8-0.2 7.6-0.2 11.5 0 0.6 0 1.5 0 2.3-0.1 1.9-0.2 4.1-0.3 5.6 0.4 0.4 0.2 0.6 0.6 0.6 1-0.3 3.4-0.2 6.9-0.1 10.3 0 1.6 0.1 3.3 0.1 4.9C75.7 87.5 75.2 88 74.7 88z" fill="#373030" data-fill-palette-color="accent"></path><path d="M75 72.5c-0.7 0-1.4 0-2.1 0-0.5 0-1-0.5-1-1s0.4-1 1-1l0.5 0c0.1 0 0.2 0 0.2 0 2.9 0.1 5.9-0.1 8.9-0.2 1 0 2-0.1 3-0.1 0.9 0 1.8-0.2 2.8-0.3 1.4-0.2 2.8-0.4 4.3-0.3 0.6 0 1 0.5 0.9 1.1 0 0.6-0.5 1-1.1 0.9-1.3-0.1-2.5 0.1-3.9 0.3-1 0.1-2 0.3-3 0.3-1 0-2 0.1-3 0.1C80.2 72.4 77.6 72.5 75 72.5z" fill="#373030" data-fill-palette-color="accent"></path><path d="M80.8 68.5c-1 0-2 0-3-0.1-1.6-0.1-3.2-0.1-4.8-0.1-1.5 0-3.1 0-4.6 0-0.5 0-0.9-0.4-0.9-0.8-0.1-0.8 0.1-1.5 0.3-2.1 0.1-0.3 0.2-0.6 0.2-0.9 0.1-1.1 0.2-2.3 0.3-3.5 0.1-1 0.1-2 0.2-2.9 0.4-3.6 0.9-7.3 1.4-10.8l0.1-0.9c0.2-1.6 0.4-3.2 0.6-4.8 0.3-2.2 0.6-4.5 1-6.8 0.1-0.8 0.3-1.6 0.5-2.3 0.2-0.6 0.3-1.1 0.4-1.7-0.4 0-0.8-0.4-0.9-0.8-0.1-0.5 0.2-1 0.7-1.2 0.1 0 0.2-0.1 0.4-0.1 0.1-0.5 0.3-1 0.8-1.3 0.5-0.3 1.1-0.1 1.4 0.3 0 0.1 0.1 0.1 0.1 0.2 1.9-0.7 3.8-1.5 5.6-2.4 0.3-0.2 0.7-0.4 1.2-0.6 1.5-0.8 3.1-1.7 4.6-1.5 0.5 0.1 0.8 0.4 0.9 0.9 0.6 5.8-0.1 11.7-0.8 17.4-0.4 3.6-0.9 7.3-1 11 0 1.2-0.1 2.3-0.1 3.5-0.1 3.7-0.2 7.5-0.5 11.2 0 0.4-0.4 0.8-0.8 0.9C83 68.4 81.9 68.5 80.8 68.5zM75 66.3c0.9 0 1.9 0 2.9 0.1 1.7 0.1 3.5 0.2 5.1 0 0.3-3.4 0.4-6.8 0.5-10.2 0-1.2 0-2.3 0.1-3.5 0.1-3.7 0.6-7.5 1-11.1 0.6-5.3 1.3-10.7 0.9-16-0.8 0.2-1.8 0.8-2.5 1.2-0.5 0.3-0.9 0.5-1.3 0.7-2.2 1-4.5 2-6.8 2.8 0 0.1 0 0.2 0 0.3-0.1 0.9-0.4 1.7-0.6 2.5-0.2 0.7-0.4 1.4-0.5 2.1-0.4 2.2-0.7 4.5-0.9 6.7-0.2 1.6-0.4 3.2-0.6 4.9l-0.1 0.9c-0.5 3.7-1.1 7.1-1.4 10.7-0.1 0.9-0.1 1.9-0.2 2.8-0.1 1.2-0.1 2.4-0.3 3.6-0.1 0.4-0.2 0.8-0.3 1.2 0 0.1-0.1 0.3-0.1 0.4 1.1 0 2.3 0 3.4 0C73.6 66.3 74.3 66.3 75 66.3z" fill="#373030" data-fill-palette-color="accent"></path><path d="M80.9 64.5c-0.7 0-1.5-0.2-2.1-0.4-0.3-0.1-0.7-0.2-1-0.2l-0.6-0.1c-1.5-0.2-3-0.5-4.3 0-0.3 0.1-0.6 0.1-0.9-0.1-0.3-0.2-0.4-0.5-0.4-0.8-0.1-1.8 0.2-3.9 0.5-5.8 0.1-0.9 0.3-1.8 0.4-2.6l0.2-2.2c0.4-3.6 0.7-7.3 1.5-10.9 0.2-0.9 0.3-1.7 0.3-2.6 0.1-0.9 0.2-1.8 0.4-2.8 0.1-0.4 0.2-0.9 0.3-1.4-0.4 0.1-0.8-0.1-1.1-0.4l-0.2-0.3c-0.3-0.4-0.2-1 0.3-1.4 0.6-0.4 1.2-0.7 1.8-1 0.2-0.2 0.5-0.4 0.8-0.3 0.4-0.1 0.7-0.3 1.1-0.4 0.4-0.2 0.9-0.3 1.3-0.5 0.1-0.1 0.3-0.2 0.5-0.3 0.9-0.5 1.9-1 2.9-0.7 0.5 0.1 1.3 0.4 1.3 1.5 0 0.1 0 0.1 0 0.2 0.2 0.7 0.2 1.6 0.1 2.5 0 0.3-0.1 0.7 0 0.9l0 0.7c0 1.5 0.1 3 0 4.6-0.1 3.5-0.4 7.1-0.8 10.5-0.4 4.3-0.9 8.8-0.8 13.2 0 0.5-0.3 0.9-0.8 1C81.5 64.4 81.2 64.5 80.9 64.5zM74.6 61.5c1 0 2 0.2 2.9 0.3l0.6 0.1c0.3 0.1 0.7 0.1 1.1 0.2 0.4 0.1 0.8 0.2 1.2 0.3 0-4.2 0.4-8.3 0.8-12.4 0.3-3.4 0.7-7 0.8-10.4 0-1.5 0-3 0-4.5l0-0.7c0-0.3 0-0.7 0.1-1.1 0-0.6 0.1-1.4 0-1.7 0-0.1-0.1-0.3-0.1-0.4-0.3 0.1-1 0.4-1.3 0.6-0.3 0.1-0.5 0.3-0.7 0.4-0.4 0.2-0.9 0.4-1.4 0.5-0.3 0.1-0.6 0.2-0.9 0.4-0.1 0.7-0.3 1.3-0.5 1.9-0.1 0.5-0.3 1-0.4 1.5-0.2 0.8-0.2 1.7-0.3 2.6-0.1 0.9-0.2 1.9-0.4 2.9-0.7 3.5-1.1 7.2-1.4 10.7l-0.2 2.2c-0.1 0.8-0.2 1.7-0.4 2.7-0.2 1.4-0.5 2.9-0.5 4.2C73.9 61.5 74.3 61.5 74.6 61.5z" fill="#373030" data-fill-palette-color="accent"></path><path d="M85.1 66.5c-0.4 0-0.7-0.2-0.9-0.5-0.3-0.5-0.1-1.1 0.4-1.4 0.6-0.3 1-0.5 1.4-0.6 0.1 0 0.3-0.1 0.4-0.1 0 0 0.1-0.1 0.1-0.7 0.3-2.5 0.3-4.9 0.3-7.5l0-1.3c0-5.2 0.5-10.5 1-15.6 0.2-2 0.4-4 0.6-6l0-0.1c0.3-3.1 0.1-4.5 0-5.1-0.4 0.3-0.9 0.2-1.3-0.1-0.4-0.4-0.4-1 0-1.4 0.9-0.9 1.6-0.8 2.1-0.6 0.9 0.4 1.7 1.6 1.2 7.4C90.2 35 90 37 89.8 39c-0.5 5.1-1 10.3-1 15.4l0 1.3c0 2.5 0 5.2-0.3 7.8-0.2 1.7-0.7 2.2-1.9 2.5-0.3 0.1-0.6 0.2-1 0.4C85.4 66.5 85.3 66.5 85.1 66.5z" fill="#373030" data-fill-palette-color="accent"></path><path d="M88.9 62.6c-0.5 0-1-0.1-1.6-0.4-0.5-0.2-0.7-0.9-0.4-1.3 0.2-0.5 0.9-0.7 1.3-0.4 0 0 0.1 0 0.1 0 0.1-1.7 0.2-3.4 0.2-5.1 0.1-2.5 0.1-5.1 0.5-7.6 0.1-0.8 0.2-1.6 0.4-2.4 0.4-2.7 0.9-5.5 0.7-7.9C90 36.2 90 36.1 88.7 36c-0.3 0-0.6-0.2-0.8-0.4-0.4-0.6-0.2-1.1-0.1-1.3 0.1-0.2 0.5-0.6 1.3-0.5 0.3 0 0.5 0.1 0.6 0.3 1.8 0.3 2.2 1.5 2.4 3.2 0.2 2.6-0.3 5.7-0.7 8.3-0.1 0.8-0.3 1.6-0.4 2.4-0.3 2.4-0.4 5-0.5 7.4-0.1 2.1-0.1 4.2-0.3 6.3 0 0.5-0.4 0.8-0.8 0.9C89.2 62.6 89.1 62.6 88.9 62.6zM89 34.9l-0.1 0.9c0 0 0 0 0 0L89 34.9 89 34.9z" fill="#373030" data-fill-palette-color="accent"></path><path d="M66.3 73.1c-0.4 0-0.8-0.3-1-0.7-0.2-0.5 0.1-1.1 0.7-1.2 0.7-0.2 1.6-0.2 2.7-0.3 1.7-0.1 4.2-0.2 4.5-1.1 0.2-0.5-0.4-1.1-0.6-1.2-1.7-0.8-4.7 0-9 2.4-0.5 0.3-1.1 0.1-1.4-0.4-0.3-0.5-0.1-1.1 0.4-1.4 3.2-1.8 7.8-4 10.9-2.4 1 0.5 2.2 2.1 1.6 3.7-0.8 2.2-3.9 2.3-6.3 2.4-0.9 0-1.7 0.1-2.2 0.2C66.5 73.1 66.4 73.1 66.3 73.1z" fill="#373030" data-fill-palette-color="accent"></path><path d="M52.3 72.8c-0.5 0-1-0.4-1-1-0.1-2.1 0.3-2.9 2.6-3.4 1.9-0.4 3.4-0.6 5.1-0.6 0.9 0 1.7-0.2 2.6-0.4 0.9-0.2 1.9-0.4 2.9-0.4 0.5 0 1 0.4 1 1l0 0.5c0 0.6-0.4 1-1 1-0.4 0-0.7-0.2-0.9-0.4-0.5 0.1-1.1 0.2-1.6 0.3-1 0.2-2 0.4-3 0.4-1.5 0-3 0.2-4.7 0.5-0.7 0.1-0.9 0.2-1 0.3-0.1 0.1 0 0.9 0 1.1C53.3 72.3 52.9 72.8 52.3 72.8 52.4 72.8 52.3 72.8 52.3 72.8z" fill="#373030" data-fill-palette-color="accent"></path><path d="M50 39.8c-0.2 0-0.4 0-0.5-0.1-0.5-0.3-0.8-0.7-1-1-0.4 0.6-1.1 1.2-2.1 1.1-0.4 0-0.7-0.3-0.8-0.6-0.3-0.8-0.3-1.3-0.3-1.8 0-0.3 0-0.5 0-0.8-0.1-0.5 0.3-1.1 0.8-1.2 0.5-0.1 1.1 0.3 1.2 0.8 0.1 0.3 0.1 0.6 0.1 0.8 0.1-0.2 0.3-0.4 0.4-0.5 0.3-0.4 0.9-0.5 1.3-0.2 0.4 0.3 0.7 0.6 0.9 0.9 0-0.1 0-0.1 0-0.2-0.1-0.5 0.2-0.9 0.6-1.1 0.4-0.2 0.9-0.1 1.2 0.3 0.4 0.5 1 1 1.2 1 0.2 0 0.4-0.1 0.4-0.2 0-0.1 0-0.2-0.1-0.2-0.4-0.4-0.3-1 0.1-1.4 0.4-0.4 1-0.3 1.4 0.1 0.7 0.7 0.8 1.7 0.4 2.5-0.4 0.9-1.4 1.4-2.4 1.2-0.3 0-0.7-0.2-1-0.4-0.2 0.5-0.6 0.8-1.1 1.1C50.3 39.8 50.2 39.8 50 39.8z" fill="#373030" data-fill-palette-color="accent"></path><path d="M79.2 71.4c-0.8 0-1.5 0-2.3-0.1-0.6 0-1.1 0-1.7-0.1-0.6 0-1-0.5-1-1 0-0.6 0.4-1 1-1 0.6 0 1.2 0 1.8 0.1 1 0 1.9 0.1 2.9 0.1 0-0.1-0.1-0.2-0.1-0.2-0.1-0.3-0.3-0.8-0.5-0.9-0.6 0-1-0.5-0.9-1.1 0-0.6 0.5-1 1.1-0.9 1.3 0.1 1.8 1.3 2.2 2.1 0.2 0.4 0.4 0.9 0.6 1 0.4 0.2 0.5 0.6 0.5 1-0.1 0.4-0.4 0.7-0.8 0.8C81 71.4 80.1 71.4 79.2 71.4z" fill="#373030" data-fill-palette-color="accent"></path><path d="M15.6 83.3c-0.7 0-1.4-0.1-2.1-0.6-0.2-0.2-0.4-0.5-0.4-0.8 0-0.5 0.1-1 0.2-1.4 0.1-0.4 0.2-0.8 0.1-1.2-0.1-0.5 0.4-1 0.9-1.1 0.6-0.1 1 0.4 1.1 0.9 0.1 0.7-0.1 1.3-0.2 1.8 0 0.1 0 0.2-0.1 0.3 0.2 0 0.5 0 0.7 0l0.1 0c1.5 0 3.1-0.3 4.6-0.6 1-0.2 2-0.3 3-0.5 2.7-0.3 5.6-0.5 8.7-0.5 0 0 0 0 0 0 0.5 0 1 0.4 1 1 0 0.6-0.4 1-1 1-3 0-5.8 0.2-8.5 0.5C23 82.3 22 82.5 21 82.7c-1.6 0.3-3.3 0.6-4.9 0.6l-0.1 0C15.9 83.3 15.7 83.3 15.6 83.3z" fill="#373030" data-fill-palette-color="accent"></path><path d="M27.3 88c0 0-0.1 0-0.1 0-0.5-0.1-0.9-0.6-0.9-1.1l0.1-0.6c0.1-0.7 0.2-1.3 0.2-2 0-0.6 0.4-1 1-1 0.6 0 1 0.5 1 1 0 0.8-0.1 1.5-0.2 2.3l-0.1 0.5C28.2 87.6 27.8 88 27.3 88z" fill="#373030" data-fill-palette-color="accent"></path><path d="M42.3 69.6c-0.3 0-0.5 0-0.7-0.1-0.3-0.1-0.6-0.4-0.6-0.7-0.1-0.2-0.3-0.5-0.4-0.6 0 0-0.1-0.1-0.1-0.1-0.7-0.8-1.6-1.5-2.5-2.2-0.7-0.6-1.5-1.1-2.1-1.8l-0.7-0.7c-1.3-1.3-2.8-2.7-3.8-4.3-0.3-0.5-0.2-1.1 0.3-1.4 0.5-0.3 1.1-0.2 1.4 0.3 0.9 1.4 2.3 2.8 3.6 4l0.7 0.7c0.6 0.6 1.2 1.1 2 1.6 1 0.8 2 1.6 2.8 2.6 0 0 0 0 0 0 0 0.1 0.1 0.1 0.1 0.2l0 0.1c0.2 0.2 0.3 0.4 0.4 0.6 0.5-0.1 1.6-0.6 4-2.4 0.2-0.1 0.4-0.3 0.5-0.4 0.5-0.3 1-0.8 1.5-1.2 1.2-1 2.6-2.2 4-2.7-0.2-0.9-0.9-2.3-1.3-3.1-0.2-0.4-0.4-0.7-0.5-1-0.1-0.2-0.1-0.5 0-0.8 0.1-0.3 0.3-0.5 0.5-0.6 0.4-0.2 0.8-0.2 1.3 0 0.5 0.2 0.8 0.8 0.6 1.3 0 0.1 0 0.1-0.1 0.2 0 0 0 0 0 0 0.9 1.6 1.9 3.5 1.5 5-0.1 0.4-0.4 0.7-0.8 0.7-1.2 0.3-2.6 1.5-3.9 2.5-0.6 0.5-1.1 0.9-1.6 1.3-0.1 0.1-0.3 0.2-0.5 0.3C45.8 68.2 43.8 69.6 42.3 69.6z" fill="#373030" data-fill-palette-color="accent"></path><path d="M33.6 51.2c-0.2 0-0.4 0-0.5-0.1-1.2-0.7-2.4-1.9-3.1-2.8-0.2-0.3-0.4-0.5-0.5-0.8-0.1-0.1-0.1-0.2-0.2-0.3-0.1 0.1-0.2 0.3-0.4 0.3-0.5 0.3-1.1 0.2-1.4-0.3-0.3-0.4-0.2-1 0.2-1.3-0.2-0.4-0.1-0.8 0.2-1.1 0.2-0.2 0.4-0.3 0.6-0.3 0.6-1.3 1.5-2.8 3.1-2.7 0.7 0 1.2 0.5 2 1.2 0.1 0.1 0.3 0.3 0.4 0.3l0.5 0.3c0.7 0.5 1.4 1 2.1 1.4 0.2 0.1 0.4 0.3 0.5 0.6 0.1 0.3 0 0.6-0.1 0.8-0.9 1.5-1.7 3-2.4 4.3-0.1 0.2-0.3 0.4-0.6 0.5C33.8 51.2 33.7 51.2 33.6 51.2zM30.4 45.3c0.4 0.4 0.6 0.8 0.8 1.1 0.1 0.2 0.2 0.4 0.4 0.6 0.4 0.5 1 1.2 1.7 1.7 0.4-0.8 0.9-1.7 1.4-2.5-0.5-0.3-1-0.7-1.5-1l-0.5-0.3c-0.1-0.1-0.3-0.3-0.5-0.5-0.2-0.2-0.6-0.5-0.8-0.6C31.1 43.8 30.7 44.7 30.4 45.3z" fill="#373030" data-fill-palette-color="accent"></path></svg></g></svg></g></svg></g><defs></defs></svg><rect width="395.52" height="103.49148652157939" fill="none" stroke="none" visibility="hidden"></rect></g></svg></g></svg>